<?xml version="1.0" encoding="utf-8"?>
<!-- Generator: Adobe Illustrator 24.3.0, SVG Export Plug-In . SVG Version: 6.00 Build 0)  -->
<svg version="1.1" id="Layer_1" xmlns="http://www.w3.org/2000/svg" xmlns:xlink="http://www.w3.org/1999/xlink" x="0px" y="0px"
	 viewBox="0 0 31.9 32" style="enable-background:new 0 0 31.9 32;" xml:space="preserve">
<style type="text/css">
	.st0{fill:#5EFF00;}
</style>
<path d="M19.5,19.3c-0.5-0.5-1.1-1-1.7-1.5c0.6,0.6,1.1,1.1,1.5,1.7c12.5,14.7-19.3,14.7-6.7,0c0.5-0.5,1-1.1,1.5-1.7
	c-0.6,0.6-1.1,1.1-1.7,1.5C-2.3,31.8-2.3,0,12.4,12.6c0.5,0.5,1.1,1,1.7,1.5c-0.6-0.6-1.1-1.1-1.5-1.7C0.1-2.2,31.9-2.2,19.4,12.5
	c-0.5,0.5-1,1.1-1.5,1.7c0.6-0.6,1.1-1.1,1.7-1.5C34.2,0,34.2,31.9,19.5,19.3z"/>
<path class="st0" d="M27.4,16.5c-8.1,1-10,2.8-11,11c-0.1,0.6-0.9,0.6-1,0c-1-8.1-2.8-10-11-11c-0.6-0.1-0.6-0.9,0-1
	c8.1-1,10-2.8,11-11c0.1-0.6,0.9-0.6,1,0c1,8.1,2.8,10,11,11C28,15.6,28,16.4,27.4,16.5z"/>
</svg>
