<?xml version="1.0" encoding="utf-8"?>
<!-- Generator: Adobe Illustrator 24.3.0, SVG Export Plug-In . SVG Version: 6.00 Build 0)  -->
<svg version="1.1" id="Layer_1" xmlns="http://www.w3.org/2000/svg" xmlns:xlink="http://www.w3.org/1999/xlink" x="0px" y="0px"
	 viewBox="0 0 31.9 32" style="enable-background:new 0 0 31.9 32;" xml:space="preserve">
<style type="text/css">
	.st0{fill:none;stroke:#5EFF00;stroke-width:0.75;stroke-linecap:round;stroke-miterlimit:10;stroke-dasharray:0.5011,0;}
	.st1{fill:none;stroke:#5EFF00;stroke-width:0.5;stroke-miterlimit:10;}
</style>
<g>
	<path class="st0" d="M30.8,16.6c-10.5,1.3-12.9,3.6-14.2,14.2c-0.1,0.8-1.2,0.8-1.3,0C14,20.4,11.7,17.9,1.1,16.6
		c-0.8-0.1-0.8-1.2,0-1.3C11.6,14.1,14,11.7,15.3,1.1c0.1-0.8,1.2-0.8,1.3,0c1.3,10.5,3.6,12.9,14.2,14.2
		C31.6,15.5,31.6,16.5,30.8,16.6z"/>
</g>
<path class="st1" d="M29.3,26.1c-2.4,0.3-3,0.8-3.3,3.3c0,0.2-0.3,0.2-0.3,0c-0.3-2.4-0.8-3-3.3-3.3c-0.2,0-0.2-0.3,0-0.3
	c2.4-0.3,3-0.8,3.3-3.3c0-0.2,0.3-0.2,0.3,0c0.3,2.4,0.8,3,3.3,3.3C29.5,25.8,29.5,26,29.3,26.1z"/>
<path class="st1" d="M9.5,6.2c-2.4,0.3-3,0.8-3.3,3.3c0,0.2-0.3,0.2-0.3,0c-0.3-2.4-0.8-3-3.3-3.3c-0.2,0-0.2-0.3,0-0.3
	c2.4-0.3,3-0.8,3.3-3.3c0-0.2,0.3-0.2,0.3,0c0.3,2.4,0.8,3,3.3,3.3C9.6,6,9.6,6.2,9.5,6.2z"/>
</svg>
