<?xml version="1.0" encoding="utf-8"?>
<!-- Generator: Adobe Illustrator 24.3.0, SVG Export Plug-In . SVG Version: 6.00 Build 0)  -->
<svg version="1.1" id="Layer_1" xmlns="http://www.w3.org/2000/svg" xmlns:xlink="http://www.w3.org/1999/xlink" x="0px" y="0px"
	 viewBox="0 0 31.9 32" style="enable-background:new 0 0 31.9 32;" xml:space="preserve">
<style type="text/css">
	.st0{fill:#DBF227;}
	.st1{fill:#5EFF00;}
</style>
<g>
	<path class="st0" d="M25.8,16.7c-3,0.6-5,1.4-6.4,2.7c-0.5-0.5-1.1-1-1.7-1.5c0.6,0.6,1.1,1.1,1.5,1.7c-1.3,1.4-2.1,3.3-2.7,6.4
		c-0.1,0.7-1.2,0.7-1.3,0c-0.6-3-1.4-5-2.7-6.4c0.5-0.5,1-1.1,1.5-1.7c-0.6,0.6-1.1,1.1-1.7,1.5c-1.4-1.3-3.3-2.1-6.4-2.7
		c-0.7-0.1-0.7-1.2,0-1.3c3-0.6,5-1.4,6.4-2.7c0.5,0.5,1.1,1,1.7,1.5c-0.6-0.6-1.1-1.1-1.5-1.7c1.3-1.4,2.1-3.3,2.7-6.4
		c0.1-0.7,1.2-0.7,1.3,0c0.6,3,1.4,5,2.7,6.4c-0.5,0.5-1,1.1-1.5,1.7c0.6-0.6,1.1-1.1,1.7-1.5c1.4,1.3,3.3,2.1,6.4,2.7
		C26.6,15.5,26.6,16.5,25.8,16.7z"/>
	<path class="st1" d="M19.5,19.4c-0.5-0.5-1.1-1-1.7-1.5c0.6,0.6,1.1,1.1,1.5,1.7c12.6,14.9-19.5,14.9-6.8,0c0.5-0.5,1-1.1,1.5-1.7
		c-0.6,0.6-1.1,1.1-1.7,1.5c-14.9,12.6-14.9-19.5,0-6.8c0.5,0.5,1.1,1,1.7,1.5c-0.6-0.6-1.1-1.1-1.5-1.7C-0.1-2.4,32-2.4,19.4,12.5
		c-0.5,0.5-1,1.1-1.5,1.7c0.6-0.6,1.1-1.1,1.7-1.5C34.4-0.1,34.4,32.1,19.5,19.4z"/>
	<path d="M25.8,16.7c-3,0.6-5,1.4-6.4,2.7c-0.5-0.5-1.1-1-1.7-1.5c0.6,0.6,1.1,1.1,1.5,1.7c-1.3,1.4-2.1,3.3-2.7,6.4
		c-0.1,0.7-1.2,0.7-1.3,0c-0.6-3-1.4-5-2.7-6.4c0.5-0.5,1-1.1,1.5-1.7c-0.6,0.6-1.1,1.1-1.7,1.5c-1.4-1.3-3.3-2.1-6.4-2.7
		c-0.7-0.1-0.7-1.2,0-1.3c3-0.6,5-1.4,6.4-2.7c0.5,0.5,1.1,1,1.7,1.5c-0.6-0.6-1.1-1.1-1.5-1.7c1.3-1.4,2.1-3.3,2.7-6.4
		c0.1-0.7,1.2-0.7,1.3,0c0.6,3,1.4,5,2.7,6.4c-0.5,0.5-1,1.1-1.5,1.7c0.6-0.6,1.1-1.1,1.7-1.5c1.4,1.3,3.3,2.1,6.4,2.7
		C26.6,15.5,26.6,16.5,25.8,16.7z"/>
</g>
</svg>
